<?xml version="1.0" encoding="UTF-8" standalone="no"?>
<!DOCTYPE svg PUBLIC "-//W3C//DTD SVG 1.1//EN" "http://www.w3.org/Graphics/SVG/1.1/DTD/svg11.dtd">
<svg width="100%" height="100%" viewBox="0 0 500 77" version="1.1" xmlns="http://www.w3.org/2000/svg" xmlns:xlink="http://www.w3.org/1999/xlink" xml:space="preserve" xmlns:serif="http://www.serif.com/" style="fill-rule:evenodd;clip-rule:evenodd;stroke-linejoin:round;stroke-miterlimit:2;">
    <g transform="matrix(1,0,0,1,-80.8111,-74.9635)">
        <g transform="matrix(1.30386e-16,-2.12937,2.12937,1.30386e-16,-1039.24,1586.82)">
            <path d="M710,543L710,557L674,540L674,526L710,543Z"/>
        </g>
        <g transform="matrix(-1.30386e-16,-2.12937,-2.12937,1.30386e-16,1303.07,1586.82)">
            <path d="M710,543L710,557L674,540L674,526L710,543Z" style="fill:rgb(250,27,22);"/>
        </g>
        <g transform="matrix(2.28681,0,0,2.28681,-1454.79,-1217.63)">
            <g transform="matrix(50.2577,0,0,50.2577,892.503,598)">
            </g>
            <text x="722px" y="598px" style="font-family:'TwCenMT-CondensedExtraBold', 'Tw Cen MT Condensed Extra Bold', sans-serif;font-size:50.258px;">P<tspan x="740.233px 753.853px 772.086px 785.706px " y="598px 598px 598px 598px ">.P. </tspan>HALE</text>
        </g>
    </g>
</svg>
