<?xml version="1.0" encoding="UTF-8" standalone="no"?>
<!DOCTYPE svg PUBLIC "-//W3C//DTD SVG 1.1//EN" "http://www.w3.org/Graphics/SVG/1.1/DTD/svg11.dtd">
<svg width="100%" height="100%" viewBox="0 0 499 77" version="1.1" xmlns="http://www.w3.org/2000/svg" xmlns:xlink="http://www.w3.org/1999/xlink" xml:space="preserve" xmlns:serif="http://www.serif.com/" style="fill-rule:evenodd;clip-rule:evenodd;stroke-linejoin:round;stroke-miterlimit:2;">
    <g transform="matrix(1,0,0,1,-131.916,-337.671)">
        <g transform="matrix(1.30386e-16,-2.12937,2.12937,1.30386e-16,-988.133,1849.52)">
            <path d="M695.176,550L674,540L674,526L710,543L695.176,550Z" style="fill:white;"/>
        </g>
        <g transform="matrix(-1.30386e-16,-2.12937,-2.12937,1.30386e-16,1354.17,1849.52)">
            <path d="M710,543L710,557L674,540L674,526L710,543Z" style="fill:rgb(250,27,22);"/>
        </g>
        <g transform="matrix(2.28681,0,0,2.28681,-1404.98,-954.925)">
            <path d="M725.509,565.239L734.712,565.239C737.951,565.239 740.552,566.164 742.515,568.012C744.479,569.861 745.46,572.299 745.46,575.325C745.46,578.515 744.466,581.014 742.479,582.822C740.491,584.63 737.738,585.534 734.221,585.534L732.945,585.534L732.945,598L725.509,598L725.509,565.239ZM732.945,571.521L732.945,579.252C734.613,579.219 735.845,578.9 736.638,578.294C737.431,577.689 737.828,576.732 737.828,575.423C737.828,574.016 737.444,573.022 736.675,572.442C735.906,571.861 734.663,571.554 732.945,571.521Z" style="fill:white;fill-rule:nonzero;"/>
            <path d="M743.153,594.687C743.153,593.575 743.55,592.618 744.344,591.816C745.137,591.014 746.098,590.613 747.227,590.613C748.356,590.613 749.325,591.01 750.135,591.804C750.945,592.597 751.35,593.542 751.35,594.638C751.35,595.734 750.937,596.695 750.11,597.521C749.284,598.348 748.323,598.761 747.227,598.761C746.098,598.761 745.137,598.364 744.344,597.571C743.55,596.777 743.153,595.816 743.153,594.687Z" style="fill:white;fill-rule:nonzero;"/>
            <path d="M757.362,565.239L766.564,565.239C769.804,565.239 772.405,566.164 774.368,568.012C776.331,569.861 777.313,572.299 777.313,575.325C777.313,578.515 776.319,581.014 774.331,582.822C772.344,584.63 769.591,585.534 766.074,585.534L764.798,585.534L764.798,598L757.362,598L757.362,565.239ZM764.798,571.521L764.798,579.252C766.466,579.219 767.697,578.9 768.491,578.294C769.284,577.689 769.681,576.732 769.681,575.423C769.681,574.016 769.297,573.022 768.528,572.442C767.759,571.861 766.515,571.554 764.798,571.521Z" style="fill:white;fill-rule:nonzero;"/>
            <path d="M775.006,594.687C775.006,593.575 775.403,592.618 776.196,591.816C776.99,591.014 777.951,590.613 779.08,590.613C780.209,590.613 781.178,591.01 781.988,591.804C782.798,592.597 783.202,593.542 783.202,594.638C783.202,595.734 782.789,596.695 781.963,597.521C781.137,598.348 780.176,598.761 779.08,598.761C777.951,598.761 776.99,598.364 776.196,597.571C775.403,596.777 775.006,595.816 775.006,594.687Z" style="fill:white;fill-rule:nonzero;"/>
            <path d="M801.534,565.239L808.969,565.239L808.969,577.387L815.571,577.387L815.571,565.239L823.006,565.239L823.006,598L815.571,598L815.571,584.38L808.969,584.38L808.969,598L801.534,598L801.534,565.239Z" style="fill:white;fill-rule:nonzero;"/>
            <path d="M852.945,598L845.215,598L843.963,592.528L836.11,592.528L834.81,598L827.227,598L835.914,565.239L844.258,565.239L852.945,598ZM842.54,586.638C841.427,581.763 840.593,577.125 840.037,572.724L839.939,572.724C839.35,577.256 838.524,581.894 837.46,586.638L842.54,586.638Z" style="fill:white;fill-rule:nonzero;"/>
            <path d="M856.699,565.239L864.135,565.239L864.135,590.417L870.025,590.417L870.025,598L856.699,598L856.699,565.239Z" style="fill:white;fill-rule:nonzero;"/>
            <path d="M875.055,565.239L890.098,565.239L890.098,572.209L882.491,572.209L882.491,578.245L889.092,578.245L889.092,585.043L882.491,585.043L882.491,591.006L890.147,591.006L890.147,598L875.055,598L875.055,565.239Z" style="fill:white;fill-rule:nonzero;"/>
        </g>
    </g>
</svg>
